<?xml version="1.0" encoding="UTF-8" standalone="no"?>
<!DOCTYPE svg PUBLIC "-//W3C//DTD SVG 1.1//EN"
 "http://www.w3.org/Graphics/SVG/1.1/DTD/svg11.dtd">
<!-- Generated by graphviz version 2.43.0 (0)
 -->
<!-- Title: myproject_architecture Pages: 1 -->
<svg width="506pt" height="319pt"
 viewBox="0.00 0.00 505.80 318.80" xmlns="http://www.w3.org/2000/svg" xmlns:xlink="http://www.w3.org/1999/xlink">
<g id="graph0" class="graph" transform="scale(1 1) rotate(0) translate(14.4 304.4)">
<title>myproject_architecture</title>
<!-- main -->
<g id="node1" class="node">
<title>main</title>
<path fill="#f7f9fb" stroke="#425466" d="M238,-290C238,-290 183,-290 183,-290 177,-290 171,-284 171,-278 171,-278 171,-266 171,-266 171,-260 177,-254 183,-254 183,-254 238,-254 238,-254 244,-254 250,-260 250,-266 250,-266 250,-278 250,-278 250,-284 244,-290 238,-290"/>
<text text-anchor="middle" x="210.5" y="-275.2" font-family="Arial" font-size="11.00">src/main.cpp</text>
<text text-anchor="middle" x="210.5" y="-263.2" font-family="Arial" font-size="11.00">executable</text>
</g>
<!-- widget_header -->
<g id="node3" class="node">
<title>widget_header</title>
<path fill="#f7f9fb" stroke="#425466" d="M465,-224C465,-224 387,-224 387,-224 381,-224 375,-218 375,-212 375,-212 375,-200 375,-200 375,-194 381,-188 387,-188 387,-188 465,-188 465,-188 471,-188 477,-194 477,-200 477,-200 477,-212 477,-212 477,-218 471,-224 465,-224"/>
<text text-anchor="middle" x="426" y="-209.2" font-family="Arial" font-size="11.00">src/lib/widget.hpp</text>
<text text-anchor="middle" x="426" y="-197.2" font-family="Arial" font-size="11.00">public API</text>
</g>
<!-- main&#45;&gt;widget_header -->
<g id="edge1" class="edge">
<title>main&#45;&gt;widget_header</title>
<path fill="none" stroke="#425466" d="M250.16,-260.05C282.81,-249.96 330.04,-235.36 367.18,-223.87"/>
<polygon fill="#425466" stroke="#425466" points="368.13,-226.51 374.94,-221.47 366.47,-221.16 368.13,-226.51"/>
<text text-anchor="middle" x="322.5" y="-247" font-family="Arial" font-size="10.00">includes</text>
</g>
<!-- tests -->
<g id="node2" class="node">
<title>tests</title>
<path fill="#f7f9fb" stroke="#425466" d="M258,-214C258,-214 163,-214 163,-214 157,-214 151,-208 151,-202 151,-202 151,-190 151,-190 151,-184 157,-178 163,-178 163,-178 258,-178 258,-178 264,-178 270,-184 270,-190 270,-190 270,-202 270,-202 270,-208 264,-214 258,-214"/>
<text text-anchor="middle" x="210.5" y="-199.2" font-family="Arial" font-size="11.00">tests/test_widget.cpp</text>
<text text-anchor="middle" x="210.5" y="-187.2" font-family="Arial" font-size="11.00">GoogleTest</text>
</g>
<!-- tests&#45;&gt;widget_header -->
<g id="edge2" class="edge">
<title>tests&#45;&gt;widget_header</title>
<path fill="none" stroke="#425466" d="M270.12,-198.75C300.14,-200.15 336.57,-201.86 366.56,-203.26"/>
<polygon fill="#425466" stroke="#425466" points="366.72,-206.07 374.84,-203.65 366.98,-200.48 366.72,-206.07"/>
<text text-anchor="middle" x="322.5" y="-205" font-family="Arial" font-size="10.00">includes</text>
</g>
<!-- widget_impl -->
<g id="node4" class="node">
<title>widget_impl</title>
<path fill="#f7f9fb" stroke="#425466" d="M249,-112C249,-112 172,-112 172,-112 166,-112 160,-106 160,-100 160,-100 160,-88 160,-88 160,-82 166,-76 172,-76 172,-76 249,-76 249,-76 255,-76 261,-82 261,-88 261,-88 261,-100 261,-100 261,-106 255,-112 249,-112"/>
<text text-anchor="middle" x="210.5" y="-97.2" font-family="Arial" font-size="11.00">src/lib/widget.cpp</text>
<text text-anchor="middle" x="210.5" y="-85.2" font-family="Arial" font-size="11.00">implementation</text>
</g>
<!-- widget_impl&#45;&gt;widget_header -->
<g id="edge3" class="edge">
<title>widget_impl&#45;&gt;widget_header</title>
<path fill="none" stroke="#425466" d="M246.28,-112.24C283.76,-131.91 343.42,-163.2 383.37,-184.16"/>
<polygon fill="#425466" stroke="#425466" points="382.21,-186.71 390.59,-187.95 384.81,-181.75 382.21,-186.71"/>
<text text-anchor="middle" x="322.5" y="-166" font-family="Arial" font-size="10.00">implements</text>
</g>
<!-- fmt -->
<g id="node5" class="node">
<title>fmt</title>
<path fill="#edf7ed" stroke="#425466" d="M441,-112C441,-112 411,-112 411,-112 405,-112 399,-106 399,-100 399,-100 399,-88 399,-88 399,-82 405,-76 411,-76 411,-76 441,-76 441,-76 447,-76 453,-82 453,-88 453,-88 453,-100 453,-100 453,-106 447,-112 441,-112"/>
<text text-anchor="middle" x="426" y="-91.2" font-family="Arial" font-size="11.00">fmt</text>
</g>
<!-- widget_impl&#45;&gt;fmt -->
<g id="edge4" class="edge">
<title>widget_impl&#45;&gt;fmt</title>
<path fill="none" stroke="#425466" d="M261.23,-93.32C272.96,-93.19 285.42,-93.07 297,-93 319.67,-92.87 325.33,-92.85 348,-93 362.06,-93.09 377.56,-93.28 390.95,-93.46"/>
<polygon fill="#425466" stroke="#425466" points="390.94,-96.26 398.98,-93.58 391.02,-90.66 390.94,-96.26"/>
<text text-anchor="middle" x="322.5" y="-96" font-family="Arial" font-size="10.00">formats</text>
</g>
<!-- spdlog -->
<g id="node6" class="node">
<title>spdlog</title>
<path fill="#edf7ed" stroke="#425466" d="M441,-36C441,-36 411,-36 411,-36 405,-36 399,-30 399,-24 399,-24 399,-12 399,-12 399,-6 405,0 411,0 411,0 441,0 441,0 447,0 453,-6 453,-12 453,-12 453,-24 453,-24 453,-30 447,-36 441,-36"/>
<text text-anchor="middle" x="426" y="-15.2" font-family="Arial" font-size="11.00">spdlog</text>
</g>
<!-- widget_impl&#45;&gt;spdlog -->
<g id="edge5" class="edge">
<title>widget_impl&#45;&gt;spdlog</title>
<path fill="none" stroke="#425466" d="M261.02,-76.37C300.99,-62.15 356.15,-42.51 391.2,-30.03"/>
<polygon fill="#425466" stroke="#425466" points="392.2,-32.65 398.79,-27.33 390.32,-27.37 392.2,-32.65"/>
<text text-anchor="middle" x="322.5" y="-66" font-family="Arial" font-size="10.00">logs</text>
</g>
<!-- ctest -->
<g id="node7" class="node">
<title>ctest</title>
<path fill="#fff7e6" stroke="#425466" d="M42,-214C42,-214 12,-214 12,-214 6,-214 0,-208 0,-202 0,-202 0,-190 0,-190 0,-184 6,-178 12,-178 12,-178 42,-178 42,-178 48,-178 54,-184 54,-190 54,-190 54,-202 54,-202 54,-208 48,-214 42,-214"/>
<text text-anchor="middle" x="27" y="-193.2" font-family="Arial" font-size="11.00">CTest</text>
</g>
<!-- ctest&#45;&gt;tests -->
<g id="edge6" class="edge">
<title>ctest&#45;&gt;tests</title>
<path fill="none" stroke="#425466" d="M54,-196C77.13,-196 111.96,-196 142.79,-196"/>
<polygon fill="#425466" stroke="#425466" points="142.95,-198.8 150.95,-196 142.95,-193.2 142.95,-198.8"/>
<text text-anchor="middle" x="102.5" y="-199" font-family="Arial" font-size="10.00">discovers</text>
</g>
</g>
</svg>
